<svg width="75" height="148" viewBox="0 0 75 148" fill="none" xmlns="http://www.w3.org/2000/svg">
<path fill-rule="evenodd" clip-rule="evenodd" d="M0 10.0002C0 10.0002 9.53674e-07 0.000183108 10 0.000183108H64C74 5.79143e-10 74 10.0002 74 10.0002V26.5002C75 26.5 75 27.0002 75 27.0002V35.0002C75 35.5002 74 35.5002 74 35.5002V38.0002C74 38.0002 75 38 75 38.5002V46.5002C75 47.0002 74 47.0002 74 47.0002V138C74 148 64 148 64 148H10C10 148 0 148 0 138V10.0002ZM12 5.00018C5 5.00018 5 12.0002 5 12.0002V136C5 143 12 143 12 143H62C62 143 69 143 69 136V12.0002C69 12.0002 69 5.00018 62 5.00018H54C54 8.00018 52 8.00018 52 8.00018H22C22 8.00018 20 8.00006 20 5.00018H12Z" fill="black"/>
<g filter="url(#filter0_i_135:323)">
<path fill-rule="evenodd" clip-rule="evenodd" d="M24.2174 6C24.8897 6 25.4348 5.55228 25.4348 5C25.4348 4.44772 24.8897 4 24.2174 4C23.5451 4 23 4.44772 23 5C23 5.55228 23.5451 6 24.2174 6ZM27.8696 4C27.1973 4 26.6522 4.44772 26.6522 5C26.6522 5.55228 27.1973 6 27.8696 6H49.7826C50.4549 6 51 5.55228 51 5C51 4.44772 50.4549 4 49.7826 4H27.8696Z" fill="white" fill-opacity="0.1"/>
</g>
<defs>
<filter id="filter0_i_135:323" x="23" y="4" width="28" height="3" filterUnits="userSpaceOnUse" color-interpolation-filters="sRGB">
<feFlood flood-opacity="0" result="BackgroundImageFix"/>
<feBlend mode="normal" in="SourceGraphic" in2="BackgroundImageFix" result="shape"/>
<feColorMatrix in="SourceAlpha" type="matrix" values="0 0 0 0 0 0 0 0 0 0 0 0 0 0 0 0 0 0 127 0" result="hardAlpha"/>
<feOffset dy="1"/>
<feGaussianBlur stdDeviation="2"/>
<feComposite in2="hardAlpha" operator="arithmetic" k2="-1" k3="1"/>
<feColorMatrix type="matrix" values="0 0 0 0 0 0 0 0 0 0 0 0 0 0 0 0 0 0 0.05 0"/>
<feBlend mode="normal" in2="shape" result="effect1_innerShadow_135:323"/>
</filter>
</defs>
</svg>
