<svg width="48" height="48" viewBox="0 0 48 48" fill="none" xmlns="http://www.w3.org/2000/svg">
<path d="M32.6598 4.00018C39.4398 4.00018 43.9998 8.76018 43.9998 15.8202V32.1602C43.9998 39.2402 39.4398 44.0002 32.6598 44.0002H15.3198C8.54176 44.0002 3.99976 39.2402 3.99976 32.1602V15.8202C3.99976 8.76018 8.54176 4.00018 15.3198 4.00018H32.6598ZM23.9998 14.3402C23.1598 14.3402 22.4998 15.0002 22.4998 15.8402V28.5402L17.5598 23.5802C17.2798 23.3002 16.8798 23.1402 16.4998 23.1402C16.1218 23.1402 15.7398 23.3002 15.4398 23.5802C14.8598 24.1602 14.8598 25.1202 15.4398 25.7002L22.9398 33.2402C23.4998 33.8002 24.4998 33.8002 25.0598 33.2402L32.5598 25.7002C33.1398 25.1202 33.1398 24.1602 32.5598 23.5802C31.9598 23.0002 31.0198 23.0002 30.4198 23.5802L25.4998 28.5402V15.8402C25.4998 15.0002 24.8198 14.3402 23.9998 14.3402Z" fill="white"/>
</svg>
